<svg width="9" height="24" viewBox="0 0 9 24" fill="none" xmlns="http://www.w3.org/2000/svg">
<path d="M1.52942 12.5882H5.94607V22.8235H1.52942V12.5882Z" fill="white"/>
<path d="M1.52942 12.5882H3.76472V22.8235H1.52942V12.5882Z" fill="#B9CAFF"/>
<path d="M5.94608 23.7647H1.52943C1.00961 23.7647 0.588257 23.3433 0.588257 22.8235V12.5882C0.588257 12.0685 1.00961 11.6471 1.52943 11.6471H5.94608C6.4659 11.6471 6.88726 12.0685 6.88726 12.5882V22.8235C6.88726 23.3433 6.4659 23.7647 5.94608 23.7647ZM2.47061 21.8824H5.0049V13.5294H2.47061V21.8824Z" fill="#038B4A"/>
<path d="M0.613647 7.3288L1.38541 5.61209L3.03211 6.35238L2.26034 8.06909L0.613647 7.3288Z" fill="#FF8900"/>
<path d="M21.8824 0H18.4706V1.88235H19.5209L11.0164 9.94171L4.5632 7.04053L3.79138 8.75741L10.82 11.9172C11.1544 12.0675 11.5874 11.9938 11.8533 11.742L20.9412 3.12976V4.11765H22.8236V0.941176C22.8236 0.421412 22.4022 0 21.8824 0V0Z" fill="#FF8900"/>
</svg>
