<svg width="24" height="24" viewBox="0 0 24 24" fill="none" xmlns="http://www.w3.org/2000/svg">
<path d="M20 1H4C3.73478 1 3.48043 1.10536 3.29289 1.29289C3.10536 1.48043 3 1.73478 3 2V22C3 22.1785 3.04778 22.3538 3.13838 22.5076C3.22898 22.6614 3.3591 22.7881 3.51523 22.8746C3.67136 22.9612 3.8478 23.0043 4.02625 22.9997C4.20469 22.995 4.37863 22.9426 4.53 22.848L12 18.179L19.47 22.848C19.6214 22.9426 19.7953 22.995 19.9738 22.9997C20.1522 23.0043 20.3286 22.9612 20.4848 22.8746C20.6409 22.7881 20.771 22.6614 20.8616 22.5076C20.9522 22.3538 21 22.1785 21 22V2C21 1.73478 20.8946 1.48043 20.7071 1.29289C20.5196 1.10536 20.2652 1 20 1ZM19 20.2L12.53 16.156C12.3711 16.0567 12.1874 16.004 12 16.004C11.8126 16.004 11.6289 16.0567 11.47 16.156L5 20.2V3H19V20.2Z" fill="white"/>
</svg>
