<svg width="24" height="24" viewBox="0 0 24 24" fill="none" xmlns="http://www.w3.org/2000/svg">
<g clip-path="url(#clip0_13_32)">
<path d="M0.00241089 5.11356L5.10527 0.0106963L23.99 18.8954L18.8871 23.9983L0.00241089 5.11356Z" fill="#FF8900"/>
<path d="M12.1136 17.2256L13.8096 15.5296L15.1537 16.8736L13.4577 18.5696L12.1136 17.2256Z" fill="white"/>
<path d="M15.1599 20.2726L17.6913 17.7413L19.0353 19.0853L16.504 21.6167L15.1599 20.2726Z" fill="white"/>
<path d="M2.97464 8.08463L5.50597 5.5533L6.85003 6.89736L4.3187 9.42869L2.97464 8.08463Z" fill="white"/>
<path d="M8.21882 20.7545L3.19107 15.7455L14.0948 4.87885L19.1226 9.88788L8.21882 20.7545Z" fill="white"/>
<path d="M19.1197 9.88499L14.0919 4.87596L17.7848 1.19505C18.1144 0.86651 18.6476 0.866451 18.9773 1.19493L22.8085 5.01183C23.1397 5.3418 23.1397 5.87798 22.8086 6.20806L19.1197 9.88499Z" fill="#B9CAFF"/>
<path d="M1.1983 22.7984L3.20638 15.7273L8.23413 20.7363L1.1983 22.7984Z" fill="#B9CAFF"/>
<path d="M8.06314 14.595L15.9392 6.71888L17.2833 8.06295L9.40721 15.939L8.06314 14.595Z" fill="#FF8900"/>
<path d="M4.80713 17.8502L6.82879 15.8285L8.17286 17.1726L6.15119 19.1942L4.80713 17.8502Z" fill="#FF8900"/>
<path d="M23.4794 4.339L19.6482 0.522108C18.9493 -0.174185 17.8123 -0.174006 17.1138 0.522465L2.57705 15.016C2.40369 15.1714 2.29503 15.3702 2.25113 15.6124L0.283864 22.5395C0.084422 23.242 0.780418 23.9123 1.46566 23.7114L8.33668 21.6976C8.53874 21.6725 8.73443 21.5834 8.88979 21.4285L23.4796 6.88196C24.1685 6.19529 24.1701 5.0271 23.4794 4.339ZM8.2355 19.3966L4.5546 15.7293L14.0949 6.22143L17.7759 9.88867L8.2355 19.3966ZM3.67223 17.5674L6.3993 20.2843L2.58306 21.4028L3.67223 17.5674ZM19.1195 8.54368L15.4386 4.87643L18.3811 1.94345L22.062 5.61063L19.1195 8.54368Z" fill="#038B4A"/>
</g>
<defs>
<clipPath id="clip0_13_32">
<rect width="24" height="24" fill="white"/>
</clipPath>
</defs>
</svg>
