<svg width="28" height="28" viewBox="0 0 28 28" fill="none" xmlns="http://www.w3.org/2000/svg">
<path d="M24.5 2.625H3.5C3.26794 2.625 3.04538 2.71719 2.88128 2.88128C2.71719 3.04538 2.625 3.26794 2.625 3.5V20.125C2.625 20.3571 2.71719 20.5796 2.88128 20.7437C3.04538 20.9078 3.26794 21 3.5 21H7V24.5C7 24.7321 7.09219 24.9546 7.25628 25.1187C7.42038 25.2828 7.64294 25.375 7.875 25.375C8.05748 25.3755 8.23543 25.3182 8.38338 25.2114L14.28 21H24.5C24.7321 21 24.9546 20.9078 25.1187 20.7437C25.2828 20.5796 25.375 20.3571 25.375 20.125V3.5C25.375 3.26794 25.2828 3.04538 25.1187 2.88128C24.9546 2.71719 24.7321 2.625 24.5 2.625ZM23.625 19.25H14C13.8176 19.2499 13.6397 19.3071 13.4916 19.4136L8.75 22.7999V20.125C8.75 19.8929 8.65781 19.6704 8.49372 19.5063C8.32962 19.3422 8.10706 19.25 7.875 19.25H4.375V4.375H23.625V19.25Z" fill="#ADADAD"/>
<path d="M8.75 9.625H19.25C19.4821 9.625 19.7046 9.53281 19.8687 9.36872C20.0328 9.20462 20.125 8.98206 20.125 8.75C20.125 8.51794 20.0328 8.29538 19.8687 8.13128C19.7046 7.96719 19.4821 7.875 19.25 7.875H8.75C8.51794 7.875 8.29538 7.96719 8.13128 8.13128C7.96719 8.29538 7.875 8.51794 7.875 8.75C7.875 8.98206 7.96719 9.20462 8.13128 9.36872C8.29538 9.53281 8.51794 9.625 8.75 9.625Z" fill="#ADADAD"/>
<path d="M8.75 14.875H14C14.2321 14.875 14.4546 14.7828 14.6187 14.6187C14.7828 14.4546 14.875 14.2321 14.875 14C14.875 13.7679 14.7828 13.5454 14.6187 13.3813C14.4546 13.2172 14.2321 13.125 14 13.125H8.75C8.51794 13.125 8.29538 13.2172 8.13128 13.3813C7.96719 13.5454 7.875 13.7679 7.875 14C7.875 14.2321 7.96719 14.4546 8.13128 14.6187C8.29538 14.7828 8.51794 14.875 8.75 14.875Z" fill="#ADADAD"/>
</svg>
