<svg width="28" height="28" viewBox="0 0 28 28" fill="none" xmlns="http://www.w3.org/2000/svg">
<path d="M24.5 2.625H5.25C5.01794 2.625 4.79538 2.71719 4.63128 2.88128C4.46719 3.04538 4.375 3.26794 4.375 3.5V7.875H3.5C3.26794 7.875 3.04538 7.96719 2.88128 8.13128C2.71719 8.29538 2.625 8.51794 2.625 8.75C2.625 8.98206 2.71719 9.20462 2.88128 9.36872C3.04538 9.53281 3.26794 9.625 3.5 9.625H4.375V13.125H3.5C3.26794 13.125 3.04538 13.2172 2.88128 13.3813C2.71719 13.5454 2.625 13.7679 2.625 14C2.625 14.2321 2.71719 14.4546 2.88128 14.6187C3.04538 14.7828 3.26794 14.875 3.5 14.875H4.375V18.375H3.5C3.26794 18.375 3.04538 18.4672 2.88128 18.6313C2.71719 18.7954 2.625 19.0179 2.625 19.25C2.625 19.4821 2.71719 19.7046 2.88128 19.8687C3.04538 20.0328 3.26794 20.125 3.5 20.125H4.375V24.5C4.375 24.7321 4.46719 24.9546 4.63128 25.1187C4.79538 25.2828 5.01794 25.375 5.25 25.375H24.5C24.7321 25.375 24.9546 25.2828 25.1187 25.1187C25.2828 24.9546 25.375 24.7321 25.375 24.5V3.5C25.375 3.26794 25.2828 3.04538 25.1187 2.88128C24.9546 2.71719 24.7321 2.625 24.5 2.625ZM23.625 23.625H6.125V20.125H7C7.23206 20.125 7.45462 20.0328 7.61872 19.8687C7.78281 19.7046 7.875 19.4821 7.875 19.25C7.875 19.0179 7.78281 18.7954 7.61872 18.6313C7.45462 18.4672 7.23206 18.375 7 18.375H6.125V14.875H7C7.23206 14.875 7.45462 14.7828 7.61872 14.6187C7.78281 14.4546 7.875 14.2321 7.875 14C7.875 13.7679 7.78281 13.5454 7.61872 13.3813C7.45462 13.2172 7.23206 13.125 7 13.125H6.125V9.625H7C7.23206 9.625 7.45462 9.53281 7.61872 9.36872C7.78281 9.20462 7.875 8.98206 7.875 8.75C7.875 8.51794 7.78281 8.29538 7.61872 8.13128C7.45462 7.96719 7.23206 7.875 7 7.875H6.125V4.375H23.625V23.625Z" fill="#ADADAD"/>
<path d="M16.625 12.25H20.125C20.3571 12.25 20.5796 12.1578 20.7437 11.9937C20.9078 11.8296 21 11.6071 21 11.375V7.875C21 7.64294 20.9078 7.42038 20.7437 7.25628C20.5796 7.09219 20.3571 7 20.125 7H16.625C16.3929 7 16.1704 7.09219 16.0063 7.25628C15.8422 7.42038 15.75 7.64294 15.75 7.875V11.375C15.75 11.6071 15.8422 11.8296 16.0063 11.9937C16.1704 12.1578 16.3929 12.25 16.625 12.25ZM17.5 8.75H19.25V10.5H17.5V8.75Z" fill="#ADADAD"/>
</svg>
