<svg width="16" height="16" viewBox="0 0 16 16" fill="none" xmlns="http://www.w3.org/2000/svg">
<path d="M8.00008 0.666656C6.54969 0.666656 5.13186 1.09675 3.9259 1.90255C2.71994 2.70834 1.78001 3.85366 1.22497 5.19365C0.669925 6.53364 0.524701 8.00813 0.807659 9.43066C1.09062 10.8532 1.78905 12.1599 2.81464 13.1855C3.84022 14.211 5.1469 14.9095 6.56942 15.1924C7.99195 15.4754 9.46644 15.3302 10.8064 14.7751C12.1464 14.2201 13.2917 13.2801 14.0975 12.0742C14.9033 10.8682 15.3334 9.45039 15.3334 8C15.3334 6.05507 14.5608 4.18981 13.1855 2.81454C11.8103 1.43927 9.94501 0.666656 8.00008 0.666656ZM10.6668 8.66666H8.00008C7.82327 8.66666 7.6537 8.59643 7.52868 8.4714C7.40366 8.34638 7.33342 8.17681 7.33342 8V3.99999C7.33342 3.82318 7.40366 3.65361 7.52868 3.52859C7.6537 3.40356 7.82327 3.33333 8.00008 3.33333C8.1769 3.33333 8.34647 3.40356 8.47149 3.52859C8.59651 3.65361 8.66675 3.82318 8.66675 3.99999V7.33333H10.6668C10.8436 7.33333 11.0131 7.40357 11.1382 7.52859C11.2632 7.65362 11.3334 7.82319 11.3334 8C11.3334 8.17681 11.2632 8.34638 11.1382 8.4714C11.0131 8.59643 10.8436 8.66666 10.6668 8.66666Z" fill="#777777"/>
</svg>
