<svg width="28" height="28" viewBox="0 0 28 28" fill="none" xmlns="http://www.w3.org/2000/svg">
<path d="M25.9691 12.4818L23.3993 10.1097C23.3683 10.0783 23.3353 10.0491 23.3004 10.0222L14.5941 1.98531C14.4324 1.83576 14.2203 1.75269 14 1.75269C13.7797 1.75269 13.5676 1.83576 13.4059 1.98531L4.69963 10.0187C4.66473 10.0456 4.6317 10.0748 4.60076 10.1062L2.03088 12.4818C1.86031 12.6394 1.75933 12.8583 1.75014 13.0903C1.74095 13.3223 1.82431 13.5485 1.98188 13.7191C2.13945 13.8896 2.35833 13.9906 2.59036 13.9998C2.82239 14.009 3.04856 13.9256 3.21913 13.7681L4.37501 12.7006V25.3749C4.37501 25.607 4.46719 25.8296 4.63129 25.9937C4.79538 26.1578 5.01794 26.2499 5.25001 26.2499H22.75C22.9821 26.2499 23.2046 26.1578 23.3687 25.9937C23.5328 25.8296 23.625 25.607 23.625 25.3749V12.7006L24.7809 13.7681C24.9427 13.9173 25.1548 14.0001 25.375 13.9999C25.5511 14.0001 25.7232 13.9471 25.8687 13.8479C26.0143 13.7487 26.1265 13.6078 26.1906 13.4438C26.2548 13.2798 26.268 13.1002 26.2285 12.9286C26.189 12.757 26.0986 12.6012 25.9691 12.4818ZM21.875 24.4999H6.12501V11.0853L14 3.81581L21.875 11.0853V24.4999Z" fill="#038B4A"/>
<path d="M11.375 21.875C11.375 22.107 11.4672 22.3296 11.6313 22.4937C11.7954 22.6578 12.0179 22.75 12.25 22.75H15.75C15.9821 22.75 16.2046 22.6578 16.3687 22.4937C16.5328 22.3296 16.625 22.107 16.625 21.875C16.625 21.6429 16.5328 21.4203 16.3687 21.2562C16.2046 21.0921 15.9821 21 15.75 21H12.25C12.0179 21 11.7954 21.0921 11.6313 21.2562C11.4672 21.4203 11.375 21.6429 11.375 21.875Z" fill="#038B4A"/>
</svg>
