<svg width="28" height="28" viewBox="0 0 28 28" fill="none" xmlns="http://www.w3.org/2000/svg">
<path d="M14 14.0542C11.2162 14.0572 8.54718 15.1644 6.5787 17.1329C4.61022 19.1014 3.50301 21.7703 3.5 24.5542C3.49995 24.7338 3.55517 24.9091 3.65817 25.0562C3.76117 25.2034 3.90697 25.3153 4.07575 25.3767C7.25668 26.5333 10.6153 27.125 14 27.1249C17.3848 27.1244 20.7434 26.5322 23.9242 25.3749C24.093 25.3135 24.2388 25.2016 24.3418 25.0545C24.4448 24.9073 24.5001 24.7321 24.5 24.5524C24.4965 21.7689 23.3891 19.1004 21.4207 17.1323C19.4522 15.1642 16.7835 14.0572 14 14.0542ZM5.271 23.9417C5.42442 21.7312 6.41074 19.6613 8.03086 18.1498C9.65098 16.6382 11.7842 15.7976 14 15.7976C16.2158 15.7976 18.349 16.6382 19.9691 18.1498C21.5893 19.6613 22.5756 21.7312 22.729 23.9417C17.066 25.8498 10.9338 25.8495 5.271 23.9408V23.9417Z" fill="#ADADAD"/>
<path d="M14 12.25C15.1249 12.25 16.2245 11.9164 17.1598 11.2915C18.0951 10.6665 18.8241 9.77827 19.2546 8.73901C19.685 7.69976 19.7977 6.55619 19.5782 5.45293C19.3587 4.34966 18.8171 3.33624 18.0217 2.54083C17.2262 1.74542 16.2128 1.20374 15.1096 0.984286C14.0063 0.764833 12.8627 0.877464 11.8235 1.30794C10.7842 1.73841 9.89597 2.46739 9.27102 3.4027C8.64607 4.338 8.3125 5.43762 8.3125 6.5625C8.31435 8.07035 8.91416 9.51591 9.98037 10.5821C11.0466 11.6483 12.4921 12.2481 14 12.25ZM14 2.625C14.7788 2.625 15.54 2.85593 16.1875 3.28859C16.8351 3.72125 17.3397 4.3362 17.6378 5.05569C17.9358 5.77517 18.0138 6.56687 17.8618 7.33067C17.7099 8.09447 17.3349 8.79607 16.7842 9.34674C16.2336 9.8974 15.532 10.2724 14.7682 10.4243C14.0044 10.5763 13.2127 10.4983 12.4932 10.2003C11.7737 9.90226 11.1587 9.39758 10.7261 8.75006C10.2934 8.10254 10.0625 7.34127 10.0625 6.5625C10.0637 5.51857 10.4789 4.51772 11.217 3.77955C11.9552 3.04137 12.9561 2.62616 14 2.625Z" fill="#ADADAD"/>
</svg>
