<svg width="26" height="16" viewBox="0 0 26 16" fill="none" xmlns="http://www.w3.org/2000/svg">
<path d="M7.15993 0.986304C6.85683 0.995337 6.56915 1.12205 6.35785 1.33954L0.526792 7.1774C0.309478 7.39601 0.1875 7.69176 0.1875 8C0.1875 8.30825 0.309478 8.60386 0.526792 8.82247L6.35785 14.6628C6.57736 14.8815 6.87468 15.0042 7.18455 15.0039C7.49442 15.0036 7.79152 14.8804 8.01063 14.6613C8.22975 14.4422 8.35297 14.145 8.35325 13.8352C8.35353 13.5253 8.23085 13.2279 8.01214 13.0084L4.17263 9.16884H24.6668C24.8204 9.16932 24.9727 9.13958 25.1148 9.0811C25.2569 9.02263 25.3861 8.93661 25.4949 8.82812C25.6037 8.71963 25.6901 8.5907 25.749 8.44878C25.8079 8.30686 25.8382 8.15475 25.8382 8.00108C25.8382 7.84741 25.8079 7.6953 25.749 7.55338C25.6901 7.41146 25.6037 7.28253 25.4949 7.17404C25.3861 7.06555 25.2569 6.97966 25.1148 6.92119C24.9727 6.86272 24.8204 6.83284 24.6668 6.83332H4.16351L8.01214 2.99376C8.18274 2.82992 8.29951 2.61817 8.34698 2.38646C8.39445 2.15475 8.37037 1.91399 8.27795 1.69627C8.18552 1.47855 8.02911 1.2941 7.82944 1.1673C7.62978 1.04049 7.39629 0.977384 7.15993 0.986304Z" fill="black"/>
</svg>
