<svg width="24" height="24" viewBox="0 0 24 24" fill="none" xmlns="http://www.w3.org/2000/svg">
<path d="M22.2178 17.743H1.78218C1.32286 17.743 0.9505 17.3706 0.9505 16.9113V1.78218C0.9505 1.32286 1.32286 0.9505 1.78218 0.9505H22.2178C22.6772 0.9505 23.0495 1.32286 23.0495 1.78218V16.9113C23.0495 17.3706 22.6772 17.743 22.2178 17.743Z" fill="white"/>
<path d="M12 17.4346L4.93066 23.9999H19.0693L12 17.4346Z" fill="#FF8900"/>
<path d="M0.9505 16.9096C0.9505 17.3698 1.32286 17.7429 1.78218 17.7429H22.2178C22.6772 17.7429 23.0495 17.3698 23.0495 16.9096V14.7666H0.9505V16.9096Z" fill="#B9CAFF"/>
<path d="M22.2178 18.6934H1.78218C0.799485 18.6934 0 17.894 0 16.9113V1.78218C0 0.799485 0.799485 0 1.78218 0H22.2178C23.2005 0 24 0.799485 24 1.78218V16.9113C24 17.894 23.2005 18.6934 22.2178 18.6934ZM1.90099 16.7925H22.099V1.90099H1.90099V16.7925Z" fill="#038B4A"/>
<path d="M17.9517 7.9165H19.7228V9.81749H17.9517V7.9165Z" fill="#FF8900"/>
<path d="M10.2363 13.0221L8.38972 8.7449L7.24348 9.95767C7.06401 10.1477 6.81409 10.2553 6.55271 10.2553H4.27722V8.3543H6.14316L7.99948 6.39023C8.46094 5.90197 9.29661 6.04953 9.56287 6.66634L11.1271 10.2896L13.2125 5.65781C13.5405 4.9292 14.5918 4.91749 14.9365 5.63761L16.0273 7.91648H16.4071V9.81747H15.4285C15.0625 9.81747 14.7292 9.60741 14.5711 9.27735L14.1055 8.30464L11.9756 13.0356C11.7426 13.5643 10.6931 13.7624 10.2363 13.0221V13.0221Z" fill="#FF8900"/>
</svg>
