<svg width="24" height="24" viewBox="0 0 24 24" fill="none" xmlns="http://www.w3.org/2000/svg">
<path d="M17.6251 11.1488L7.43931 4.78351C7.28745 4.68862 7.11295 4.6361 6.93394 4.63139C6.75493 4.62668 6.57792 4.66996 6.42128 4.75674C6.26463 4.84352 6.13406 4.97063 6.04312 5.12489C5.95217 5.27915 5.90416 5.45494 5.90406 5.63401V18.3653C5.90329 18.5447 5.95075 18.721 6.04148 18.8758C6.1322 19.0306 6.26286 19.1582 6.41978 19.2452C6.5767 19.3322 6.75412 19.3755 6.93347 19.3704C7.11283 19.3654 7.28753 19.3122 7.43931 19.2165L17.6251 12.8513C17.7693 12.761 17.8883 12.6355 17.9708 12.4866C18.0532 12.3376 18.0965 12.1702 18.0965 12C18.0965 11.8298 18.0532 11.6624 17.9708 11.5135C17.8883 11.3646 17.7693 11.2391 17.6251 11.1488V11.1488Z" fill="white"/>
</svg>
