<svg width="24" height="24" viewBox="0 0 24 24" fill="none" xmlns="http://www.w3.org/2000/svg">
<path d="M13.5001 5.00001H12.0001V3.00001C11.9994 2.79304 11.9347 2.59136 11.8148 2.4227C11.6948 2.25403 11.5256 2.12668 11.3303 2.05815C11.135 1.98963 10.9233 1.9833 10.7242 2.04004C10.5252 2.09678 10.3486 2.2138 10.2189 2.375L6.21885 7.37501C6.07275 7.55797 5.99539 7.78634 6.00021 8.02043C6.00504 8.25452 6.09174 8.47952 6.24525 8.65631L10.2453 13.2563C10.3792 13.4095 10.5566 13.5183 10.7539 13.5681C10.9512 13.6179 11.159 13.6064 11.3496 13.5351C11.5402 13.4638 11.7046 13.3361 11.8208 13.1691C11.937 13.002 11.9995 12.8035 12.0001 12.6V11H14.0001C15.9301 11 18.9901 12.6973 18.9901 17.25C18.9906 17.4696 19.0633 17.6829 19.197 17.8571C19.3307 18.0313 19.518 18.1566 19.73 18.2138C19.9421 18.271 20.167 18.2568 20.3702 18.1735C20.5733 18.0903 20.7435 17.9424 20.8544 17.7529C21.6002 16.4611 21.9931 14.9958 21.9935 13.5041C21.9939 12.0124 21.6018 10.5468 20.8566 9.25462C20.1114 7.9624 19.0394 6.889 17.7481 6.14219C16.4568 5.39539 14.9917 5.00147 13.5001 5.00001Z" fill="#FF8900"/>
<path d="M4.27999 8L7.78099 3.625C7.94522 3.41765 8.02066 3.15371 7.99081 2.89089C7.96096 2.62808 7.82826 2.38778 7.62171 2.22254C7.41517 2.0573 7.15159 1.98058 6.88864 2.00915C6.62568 2.03772 6.38473 2.16926 6.21849 2.375L2.21849 7.375C2.07673 7.55247 1.99951 7.77286 1.99951 8C1.99951 8.22714 2.07673 8.44753 2.21849 8.625L6.21849 13.625C6.38473 13.8307 6.62568 13.9623 6.88864 13.9908C7.15159 14.0194 7.41517 13.9427 7.62171 13.7775C7.82826 13.6122 7.96096 13.3719 7.99081 13.1091C8.02066 12.8463 7.94522 12.5823 7.78099 12.375L4.27999 8Z" fill="#FF8900"/>
</svg>
