<svg width="24" height="24" viewBox="0 0 24 24" fill="none" xmlns="http://www.w3.org/2000/svg">
<path d="M1.99988 22H18.6439C19.3521 22.0044 20.0395 21.7611 20.5873 21.3122C21.1351 20.8634 21.5089 20.2372 21.6439 19.542L22.9439 12.542C23.0236 12.1136 23.0077 11.6728 22.8974 11.2512C22.7871 10.8296 22.5851 10.4375 22.3059 10.103C22.0181 9.75714 21.6575 9.47899 21.25 9.28834C20.8424 9.0977 20.3978 8.99925 19.9479 9H15.1779V5C15.1779 2.939 13.0639 2 11.1019 2C10.8367 2 10.5823 2.10536 10.3948 2.29289C10.2072 2.48043 10.1019 2.73478 10.1019 3C10.1019 4.907 9.76188 6.91 9.37788 7.284L6.59288 10H1.99988C1.73466 10 1.48031 10.1054 1.29277 10.2929C1.10523 10.4804 0.999878 10.7348 0.999878 11V21C0.999878 21.2652 1.10523 21.5196 1.29277 21.7071C1.48031 21.8947 1.73466 22 1.99988 22ZM7.99988 11.421L10.7739 8.721C11.7039 7.814 11.9859 5.609 12.0739 4.137C12.6149 4.266 13.1829 4.517 13.1829 5.005V10.005C13.1829 10.2702 13.2882 10.5246 13.4758 10.7121C13.6633 10.8996 13.9177 11.005 14.1829 11.005H19.9529C20.1099 11.0039 20.2652 11.0373 20.4077 11.103C20.5503 11.1687 20.6767 11.265 20.7779 11.385C20.8701 11.4932 20.9368 11.6207 20.9731 11.7581C21.0095 11.8956 21.0145 12.0394 20.9879 12.179L19.6879 19.179C19.6376 19.4165 19.5055 19.6288 19.3147 19.7788C19.1239 19.9289 18.8865 20.0071 18.6439 20H7.99988V11.421ZM2.99988 12H5.99988V20H2.99988V12Z" fill="#0FB616"/>
</svg>
